<svg height="512pt" viewBox="0 0 512 512" width="512pt" xmlns="http://www.w3.org/2000/svg"><path d="m280.464844 129.988281 32.253906-57.476562-56.71875-60.289063-56.71875 60.285156 32.253906 57.480469zm0 0"/><path d="m235.441406 159.988281-23.828125 141.761719h88.773438l-23.828125-141.761719zm0 0"/><path d="m512 0h-37.847656l-73.78125 165.671875-66.101563-70.257813-29.355469 52.304688 61.234376 364.28125h145.851562zm0 0"/><path d="m305.429688 331.75h-98.859376l-30.296874 180.25h159.457031zm0 0"/><path d="m120.683594 112.265625 105.625-112.265625h-155.621094zm0 0"/><path d="m391.316406 112.265625 49.996094-112.265625h-155.625zm0 0"/><path d="m176.148438 331.75h-31.914063v-30h36.957031l25.894532-154.035156-29.351563-52.304688-66.109375 70.261719-73.777344-165.671875h-37.847656v512h145.851562zm0 0"/></svg>